<svg width="125" height="40" viewBox="0 0 125 40" fill="none" xmlns="http://www.w3.org/2000/svg">
<path d="M24.5524 4.40006V25.2321L0.648438 2.72006V38.0001H7.27244V17.1681L31.1764 39.6801V4.40006H24.5524ZM44.3325 29.3601V15.9201H37.9005V30.0321C37.9005 32.6561 38.5405 34.7201 39.8205 36.2241C41.1325 37.7281 43.1005 38.4801 45.7245 38.4801C47.2925 38.4801 48.6205 38.1601 49.7085 37.5201C50.7965 36.8481 51.6925 35.8881 52.3965 34.6401V38.0001H58.5885V15.9201H52.3965V29.3601C52.3965 30.2881 52.2045 31.0881 51.8205 31.7601C51.4685 32.4321 50.9565 32.9601 50.2845 33.3441C49.6445 33.6961 48.8765 33.8721 47.9805 33.8721C46.7005 33.8721 45.7725 33.4881 45.1965 32.7201C44.6205 31.9201 44.3325 30.8001 44.3325 29.3601ZM70.953 0.560059H64.713V38.0001H70.953V0.560059ZM78.969 24.5601V38.0001H85.209V23.6481C85.209 21.8241 84.937 20.2881 84.393 19.0401C83.849 17.7601 83.017 16.8001 81.897 16.1601C80.777 15.5201 79.353 15.2001 77.625 15.2001C75.897 15.2001 74.441 15.6161 73.257 16.4481C72.073 17.2801 71.177 18.4001 70.569 19.8081C69.993 21.2161 69.705 22.8001 69.705 24.5601H70.953C70.953 23.6321 71.129 22.8321 71.481 22.1601C71.833 21.4881 72.345 20.9761 73.017 20.6241C73.689 20.2401 74.457 20.0481 75.321 20.0481C76.633 20.0481 77.561 20.4321 78.105 21.2001C78.681 21.9681 78.969 23.0881 78.969 24.5601ZM95.754 31.1361C95.754 30.4961 95.898 29.9681 96.186 29.5521C96.474 29.1041 96.922 28.7681 97.53 28.5441C98.138 28.2881 98.922 28.1601 99.882 28.1601C101.066 28.1601 102.186 28.3201 103.242 28.6401C104.33 28.9601 105.306 29.4401 106.17 30.0801V27.2001C105.85 26.8161 105.322 26.4161 104.586 26.0001C103.85 25.5841 102.938 25.2321 101.85 24.9441C100.794 24.6561 99.562 24.5121 98.154 24.5121C95.402 24.5121 93.274 25.1361 91.77 26.3841C90.266 27.6321 89.514 29.3281 89.514 31.4721C89.514 32.9761 89.866 34.2561 90.57 35.3121C91.306 36.3361 92.266 37.1201 93.45 37.6641C94.634 38.2081 95.914 38.4801 97.29 38.4801C98.634 38.4801 99.914 38.2401 101.13 37.7601C102.378 37.2801 103.386 36.5601 104.154 35.6001C104.954 34.6401 105.354 33.4561 105.354 32.0481L104.586 29.1681C104.586 30.2241 104.346 31.1361 103.866 31.9041C103.386 32.6401 102.762 33.2161 101.994 33.6321C101.226 34.0161 100.362 34.2081 99.402 34.2081C98.73 34.2081 98.106 34.0961 97.53 33.8721C96.986 33.6161 96.554 33.2641 96.234 32.8161C95.914 32.3361 95.754 31.7761 95.754 31.1361ZM93.354 22.1601C93.674 21.9361 94.17 21.6641 94.842 21.3441C95.514 21.0241 96.314 20.7521 97.242 20.5281C98.17 20.3041 99.146 20.1921 100.17 20.1921C100.842 20.1921 101.45 20.2561 101.994 20.3841C102.538 20.5121 103.002 20.7201 103.386 21.0081C103.802 21.2961 104.106 21.6641 104.298 22.1121C104.49 22.5281 104.586 23.0401 104.586 23.6481V38.0001H110.586V22.3521C110.586 20.8481 110.17 19.5841 109.338 18.5601C108.506 17.5041 107.354 16.7041 105.882 16.1601C104.41 15.6161 102.73 15.3441 100.842 15.3441C98.794 15.3441 96.938 15.6321 95.274 16.2081C93.61 16.7521 92.202 17.3281 91.05 17.9361L93.354 22.1601ZM116.945 35.1681C116.945 36.1921 117.313 37.0881 118.049 37.8561C118.817 38.6241 119.761 39.0081 120.881 39.0081C122.033 39.0081 122.977 38.6241 123.713 37.8561C124.449 37.0881 124.817 36.1921 124.817 35.1681C124.817 34.0801 124.449 33.1681 123.713 32.4321C122.977 31.6641 122.033 31.2801 120.881 31.2801C119.761 31.2801 118.817 31.6641 118.049 32.4321C117.313 33.1681 116.945 34.0801 116.945 35.1681Z" fill="black"/>
</svg>
