<svg width="165" height="47" viewBox="0 0 165 47" fill="none" xmlns="http://www.w3.org/2000/svg">
<path d="M83.22 13V26.02L68.28 11.95V34H72.42V20.98L87.36 35.05V13H83.22ZM91.7726 13V27.1C91.7726 28.34 91.9726 29.43 92.3726 30.37C92.7726 31.31 93.3326 32.1 94.0526 32.74C94.7726 33.38 95.6226 33.86 96.6026 34.18C97.5826 34.52 98.6526 34.69 99.8126 34.69C100.953 34.69 102.013 34.52 102.993 34.18C103.973 33.86 104.823 33.38 105.543 32.74C106.283 32.1 106.853 31.31 107.253 30.37C107.653 29.43 107.853 28.34 107.853 27.1V13H103.563V26.83C103.563 28.03 103.243 29 102.603 29.74C101.983 30.46 101.053 30.82 99.8126 30.82C98.5726 30.82 97.6326 30.46 96.9926 29.74C96.3726 29 96.0626 28.03 96.0626 26.83V13H91.7726ZM113.635 24.76H129.055V20.89H113.635V24.76ZM126.325 13V34H130.615V13H126.325ZM112.225 13V34H116.515V13H112.225ZM138.045 29.23H149.145L148.635 25.84H138.555L138.045 29.23ZM143.535 19.81L146.685 27.1L146.625 28.18L149.325 34H154.185L143.535 11.77L132.885 34H137.715L140.475 28L140.385 27.04L143.535 19.81ZM157.372 32.23C157.372 32.87 157.602 33.43 158.062 33.91C158.542 34.39 159.132 34.63 159.832 34.63C160.552 34.63 161.142 34.39 161.602 33.91C162.062 33.43 162.292 32.87 162.292 32.23C162.292 31.55 162.062 30.98 161.602 30.52C161.142 30.04 160.552 29.8 159.832 29.8C159.132 29.8 158.542 30.04 158.062 30.52C157.602 30.98 157.372 31.55 157.372 32.23Z" fill="white"/>
<rect width="47" height="47" rx="5" fill="#DC3545"/>
<path d="M29.22 13V26.02L14.28 11.95V34H18.42V20.98L33.36 35.05V13H29.22Z" fill="white"/>
</svg>
